<?xml version="1.0" standalone="no"?>
<!DOCTYPE svg PUBLIC "-//W3C//DTD SVG 20010904//EN"
 "http://www.w3.org/TR/2001/REC-SVG-20010904/DTD/svg10.dtd">
<svg version="1.0" xmlns="http://www.w3.org/2000/svg"
 width="512.000000pt" height="512.000000pt" viewBox="0 0 512.000000 512.000000"
 preserveAspectRatio="xMidYMid meet">
<metadata>
Created by potrace 1.14, written by Peter Selinger 2001-2017
</metadata>
<g transform="translate(0.000000,512.000000) scale(0.100000,-0.100000)"
fill="#000000" stroke="none">
<path d="M140 3910 l0 -70 -70 0 -70 0 0 -140 0 -140 70 0 70 0 0 -75 0 -75
145 0 145 0 0 75 0 75 70 0 70 0 0 140 0 140 -70 0 -70 0 0 70 0 70 -145 0
-145 0 0 -70z"/>
<path d="M2700 3910 l0 -70 -70 0 -70 0 0 -1065 0 -1065 70 0 70 0 0 -145 0
-145 145 0 145 0 0 -70 0 -70 425 0 425 0 0 70 0 70 140 0 140 0 0 145 0 145
75 0 75 0 0 140 0 140 -75 0 -75 0 0 70 0 70 -140 0 -140 0 0 -70 0 -70 -70 0
-70 0 0 -70 0 -70 -215 0 -215 0 0 70 0 70 -70 0 -70 0 0 355 0 355 215 0 215
0 0 70 0 70 70 0 70 0 0 145 0 145 -70 0 -70 0 0 70 0 70 -215 0 -215 0 0 285
0 285 -70 0 -70 0 0 70 0 70 -145 0 -145 0 0 -70z"/>
<path d="M140 3200 l0 -70 -70 0 -70 0 0 -855 0 -855 70 0 70 0 0 -70 0 -70
145 0 145 0 0 70 0 70 70 0 70 0 0 855 0 855 -70 0 -70 0 0 70 0 70 -145 0
-145 0 0 -70z"/>
<path d="M850 3200 l0 -70 -70 0 -70 0 0 -710 0 -710 70 0 70 0 0 -145 0 -145
145 0 145 0 0 -70 0 -70 425 0 425 0 0 70 0 70 145 0 145 0 0 145 0 145 70 0
70 0 0 710 0 710 -70 0 -70 0 0 70 0 70 -145 0 -145 0 0 -70 0 -70 -70 0 -70
0 0 -570 0 -570 -70 0 -70 0 0 -70 0 -70 -145 0 -145 0 0 70 0 70 -70 0 -70 0
0 570 0 570 -70 0 -70 0 0 70 0 70 -145 0 -145 0 0 -70z"/>
<path d="M4690 3200 l0 -70 -70 0 -70 0 0 -145 0 -145 70 0 70 0 0 -70 0 -70
145 0 145 0 0 70 0 70 70 0 70 0 0 145 0 145 -70 0 -70 0 0 70 0 70 -145 0
-145 0 0 -70z"/>
<path d="M4690 2205 l0 -75 -70 0 -70 0 0 -140 0 -140 70 0 70 0 0 -70 0 -70
145 0 145 0 0 70 0 70 70 0 70 0 0 140 0 140 -70 0 -70 0 0 75 0 75 -145 0
-145 0 0 -75z"/>
</g>
</svg>
